<?xml version="1.0" encoding="UTF-8" standalone="no"?><!DOCTYPE svg PUBLIC "-//W3C//DTD SVG 1.1//EN" "http://www.w3.org/Graphics/SVG/1.1/DTD/svg11.dtd"><!-- Generated by graphviz version 2.40.1 (20161225.0304)
 --><!-- Title: mygraph Pages: 1 --><svg xmlns="http://www.w3.org/2000/svg" xmlns:xlink="http://www.w3.org/1999/xlink" width="81pt" height="188pt" viewBox="0.00 0.00 81.17 188.00">
<g id="graph0" class="graph" transform="scale(1 1) rotate(0) translate(4 184)">
<title>mygraph</title>
<polygon fill="#ffffff" stroke="transparent" points="-4,4 -4,-184 77.1676,-184 77.1676,4 -4,4"/>
<!-- //:archive -->
<g id="node1" class="node">
<title>//:archive</title>
<polygon fill="none" stroke="#000000" points="70.9507,-180 2.2169,-180 2.2169,-144 70.9507,-144 70.9507,-180"/>
<text text-anchor="middle" x="36.5838" y="-157.8" font-family="Times,serif" font-size="14.00" fill="#000000">//:archive</text>
</g>
<!-- //:hello -->
<g id="node2" class="node">
<title>//:hello</title>
<polygon fill="none" stroke="#000000" points="64.2524,-108 8.9152,-108 8.9152,-72 64.2524,-72 64.2524,-108"/>
<text text-anchor="middle" x="36.5838" y="-85.8" font-family="Times,serif" font-size="14.00" fill="#000000">//:hello</text>
</g>
<!-- //:archive&#45;&gt;//:hello -->
<g id="edge1" class="edge">
<title>//:archive-&gt;//:hello</title>
<path fill="none" stroke="#000000" d="M36.5838,-143.8314C36.5838,-136.131 36.5838,-126.9743 36.5838,-118.4166"/>
<polygon fill="#000000" stroke="#000000" points="40.0839,-118.4132 36.5838,-108.4133 33.0839,-118.4133 40.0839,-118.4132"/>
</g>
<!-- //:hello.go -->
<g id="node3" class="node">
<title>//:hello.go</title>
<polygon fill="none" stroke="#000000" points="73.2516,-36 -.084,-36 -.084,0 73.2516,0 73.2516,-36"/>
<text text-anchor="middle" x="36.5838" y="-13.8" font-family="Times,serif" font-size="14.00" fill="#000000">//:hello.go</text>
</g>
<!-- //:hello&#45;&gt;//:hello.go -->
<g id="edge2" class="edge">
<title>//:hello-&gt;//:hello.go</title>
<path fill="none" stroke="#000000" d="M36.5838,-71.8314C36.5838,-64.131 36.5838,-54.9743 36.5838,-46.4166"/>
<polygon fill="#000000" stroke="#000000" points="40.0839,-46.4132 36.5838,-36.4133 33.0839,-46.4133 40.0839,-46.4132"/>
</g>
</g>
</svg>